<svg width="54" height="39" viewBox="0 0 54 39" fill="none" xmlns="http://www.w3.org/2000/svg">
<path d="M14.5 26.8898C15.8807 26.8898 17 25.7749 17 24.3995C17 23.024 15.8807 21.9091 14.5 21.9091C13.1193 21.9091 12 23.024 12 24.3995C12 25.7749 13.1193 26.8898 14.5 26.8898Z" fill="black" stroke="#000AFF" stroke-width="3" stroke-linecap="round" stroke-linejoin="round"/>
<path d="M2 11.9478V3.48065C2 2.65543 2.67157 1.98645 3.5 1.98645H50.5C51.3285 1.98645 52 2.65543 52 3.48065V11.9478M2 11.9478V35.3569C2 36.1822 2.67157 36.8511 3.5 36.8511H50.5C51.3285 36.8511 52 36.1822 52 35.3569V11.9478M2 11.9478H52" stroke="#000AFF" stroke-width="3" stroke-linecap="round" stroke-linejoin="round"/>
</svg>
