<svg width="54" height="54" viewBox="0 0 54 54" fill="none" xmlns="http://www.w3.org/2000/svg">
<path d="M27 51.8067C13.1929 51.8067 2 40.6569 2 26.9033C2 13.1496 13.1929 2 27 2C40.807 2 52 13.1496 52 26.9033C52 40.6569 40.807 51.8067 27 51.8067Z" stroke="#000AFF" stroke-width="3" stroke-linecap="round" stroke-linejoin="round"/>
<path d="M38.25 33.1292C38.25 33.1292 34.5 38.1098 27 38.1098C19.5 38.1098 15.75 33.1292 15.75 33.1292" stroke="#000AFF" stroke-width="3" stroke-linecap="round" stroke-linejoin="round"/>
<path d="M35.75 19.4324C35.0597 19.4324 34.5 18.8749 34.5 18.1872C34.5 17.4995 35.0597 16.942 35.75 16.942C36.4403 16.942 37 17.4995 37 18.1872C37 18.8749 36.4403 19.4324 35.75 19.4324Z" fill="black" stroke="#000AFF" stroke-width="3" stroke-linecap="round" stroke-linejoin="round"/>
<path d="M18.25 19.4324C17.5597 19.4324 17 18.8749 17 18.1872C17 17.4995 17.5597 16.942 18.25 16.942C18.9404 16.942 19.5 17.4995 19.5 18.1872C19.5 18.8749 18.9404 19.4324 18.25 19.4324Z" fill="black" stroke="#000AFF" stroke-width="3" stroke-linecap="round" stroke-linejoin="round"/>
</svg>
