<svg width="88" height="30" viewBox="0 0 88 30" fill="none" xmlns="http://www.w3.org/2000/svg">
<g clip-path="url(#clip0_138_4)">
<path d="M55.6528 29.5C63.8284 29.5 70.456 23.0081 70.456 15C70.456 6.99187 63.8284 0.5 55.6528 0.5C47.4773 0.5 40.8497 6.99187 40.8497 15C40.8497 23.0081 47.4773 29.5 55.6528 29.5Z" fill="white"/>
<path d="M71.0001 15.1837C71.0001 14.8697 71.1274 14.5687 71.3541 14.3467C71.5807 14.1247 71.8881 14 72.2085 14C72.529 14 72.8364 14.1247 73.063 14.3467C73.2896 14.5687 73.417 14.8697 73.417 15.1837C73.4196 15.3407 73.3897 15.4967 73.3291 15.6421C73.2685 15.7876 73.1785 15.9195 73.0645 16.03C72.9539 16.1418 72.8215 16.2307 72.6752 16.2914C72.5288 16.3521 72.3715 16.3834 72.2126 16.3834C72.0536 16.3834 71.8963 16.3521 71.75 16.2914C71.6036 16.2307 71.4712 16.1418 71.3606 16.03C71.2445 15.9207 71.1526 15.7892 71.0905 15.6436C71.0285 15.498 70.9977 15.3414 71.0001 15.1837ZM73.3304 23.6903H71.1049V17.4958L73.3304 17.1999V23.6903Z" fill="white"/>
<path d="M77.1973 23.6903H74.9819V17.4958H77.0382L77.0805 18.5828C77.2863 18.1955 77.5926 17.8682 77.9687 17.6339C78.3558 17.4248 78.7937 17.3225 79.2355 17.338H79.4107V19.6461H78.9334C78.2446 19.6461 77.7827 19.7224 77.5477 19.875C77.3101 20.0288 77.1933 20.3997 77.1933 20.9856L77.1973 23.6903Z" fill="white"/>
<path d="M80.1579 20.5871C80.1427 20.137 80.2225 19.6886 80.3923 19.2701C80.5621 18.8515 80.8183 18.4718 81.1448 18.1547C81.8256 17.5394 82.7179 17.1977 83.6442 17.1977C84.5705 17.1977 85.4629 17.5394 86.1436 18.1547C86.7769 18.8135 87.1296 19.6842 87.1296 20.5891C87.1296 21.494 86.7769 22.3647 86.1436 23.0235C85.4638 23.64 84.5716 23.9824 83.6452 23.9824C82.7188 23.9824 81.8266 23.64 81.1468 23.0235C80.8199 22.7058 80.5634 22.3254 80.3933 21.9062C80.2231 21.487 80.143 21.038 80.1579 20.5871ZM82.4036 20.5871C82.3813 21.0368 82.5023 21.4822 82.75 21.8616C82.8434 22.01 82.9741 22.1326 83.1295 22.2177C83.285 22.3027 83.4601 22.3474 83.6382 22.3474C83.8162 22.3474 83.9913 22.3027 84.1468 22.2177C84.3023 22.1326 84.4329 22.01 84.5264 21.8616C84.7532 21.475 84.8727 21.0369 84.8727 20.5911C84.8727 20.1452 84.7532 19.7071 84.5264 19.3206C84.4337 19.1712 84.3033 19.0476 84.1477 18.9619C83.9921 18.8762 83.8167 18.8312 83.6382 18.8312C83.4597 18.8312 83.2842 18.8762 83.1286 18.9619C82.9731 19.0476 82.8427 19.1712 82.75 19.3206C82.504 19.6977 82.383 20.1401 82.4036 20.5871Z" fill="white"/>
<path d="M47.3852 23.3843C47.3853 23.2867 47.3647 23.19 47.3247 23.1005C47.2848 23.011 47.2264 22.9306 47.1532 22.8643C47.08 22.7979 46.9936 22.7472 46.8994 22.7151C46.8052 22.6831 46.7052 22.6705 46.6058 22.6781L5 25.7083H46.6703C46.8625 25.7083 47.047 25.6335 47.1829 25.5003C47.3189 25.3671 47.3953 25.1864 47.3953 24.9981L47.3852 23.3843Z" fill="white"/>
<path d="M56.4665 27.7462C56.4665 27.4424 56.1 27.2037 55.6609 27.2254L12.8849 29.4546H55.7233C56.1262 29.4546 56.4665 29.2199 56.4665 28.9318V27.7462Z" fill="white"/>
<path d="M52.7325 25.8681C52.7325 25.5524 52.376 25.3039 51.9551 25.3275L10.3291 27.6416H51.9994C52.4022 27.6416 52.7224 27.399 52.7224 27.0991L52.7325 25.8681Z" fill="white"/>
<path d="M4.71133 24.5621L6.22387 16.7242L10.6809 24.1281L13.424 23.9288L17.4017 16.8564L18.7995 23.5382L23.1538 23.2226L19.4077 5.84033H19.0573L12.1089 18.2945L4.74356 5.84033H4.4052L0.5 24.8679L4.71133 24.5621Z" fill="white"/>
<path d="M29.8122 22.6051L34.4585 22.2677V15.7082L41.987 5.84033H37.0445L32.5472 11.8968L28.4668 5.84033H22.8376L29.8122 15.8937V22.6051Z" fill="white"/>
<path d="M60.8168 23.7079L60.5389 22.2007C59.8922 22.8731 59.0923 23.3861 58.2046 23.698C57.1823 24.044 56.1058 24.211 55.0245 24.1912C52.4734 24.1912 50.4654 23.3712 49.0005 21.7312C47.5356 20.0911 46.8018 17.8474 46.7992 15C46.7992 12.0869 47.6175 9.82604 49.2543 8.21756C50.891 6.60908 53.185 5.80484 56.1362 5.80484C58.459 5.80484 60.3321 6.36971 61.7553 7.49947C63.1786 8.62922 64.0231 10.2213 64.289 12.2756H58.8511C58.6792 11.6494 58.3081 11.0932 57.7917 10.6875C57.2667 10.3125 56.6285 10.1208 55.9791 10.143C54.8351 10.143 53.9785 10.5731 53.4092 11.4332C52.8399 12.2933 52.5553 13.577 52.5553 15.2841C52.5553 16.8623 52.8419 18.046 53.4152 18.8351C53.9886 19.6242 54.8613 20.0148 56.0335 20.0069C56.7879 20.0304 57.5319 19.8303 58.1684 19.4329C58.4465 19.2604 58.6859 19.0343 58.8722 18.7684C59.0584 18.5026 59.1876 18.2024 59.2519 17.8862H56.68V14.1478H64.5065V23.7079H60.8168Z" fill="#000AFF"/>
</g>
<defs>
<clipPath id="clip0_138_4">
<rect width="87" height="29" fill="white" transform="translate(0.5 0.5)"/>
</clipPath>
</defs>
</svg>
