<svg width="54" height="54" viewBox="0 0 54 54" fill="none" xmlns="http://www.w3.org/2000/svg">
<path d="M21.8741 24.629L3.52047 42.9118C1.49318 44.9311 1.49318 48.2054 3.52047 50.2248C5.54774 52.2444 8.83462 52.2444 10.8619 50.2248L29.2155 31.9423" stroke="#000AFF" stroke-width="3" stroke-linecap="round" stroke-linejoin="round"/>
<path d="M40.413 32.884L50.4795 42.9116C52.5069 44.9309 52.5069 48.2053 50.4795 50.2246C48.4523 52.2442 45.1653 52.2442 43.1381 50.2246L27.0233 34.1724" stroke="#000AFF" stroke-width="3" stroke-linecap="round" stroke-linejoin="round"/>
<path d="M13.2628 12.4696L7.75672 14.2979L2.25063 5.15655L5.92135 1.5L15.0982 6.9848L13.2628 12.4696ZM13.2628 12.4696L20.609 19.7873" stroke="#000AFF" stroke-width="3" stroke-linecap="round" stroke-linejoin="round"/>
<path d="M21.8742 24.6288C19.684 19.0621 20.1122 11.7579 24.6273 7.26031C29.1423 2.76267 37.4747 1.77551 42.0632 4.51791L34.1708 12.3798L33.4373 20.4235L41.5122 19.6928L49.4046 11.831C52.1578 16.4016 51.1668 24.702 46.6517 29.1996C42.1364 33.6972 34.8041 34.1238 29.2158 31.9418" stroke="#000AFF" stroke-width="3" stroke-linecap="round" stroke-linejoin="round"/>
</svg>
