<svg width="54" height="33" viewBox="0 0 54 33" fill="none" xmlns="http://www.w3.org/2000/svg">
<path d="M17.9091 31.4118C20.4194 31.4118 22.4545 29.3847 22.4545 26.884C22.4545 24.3832 20.4194 22.3561 17.9091 22.3561C15.3987 22.3561 13.3636 24.3832 13.3636 26.884C13.3636 29.3847 15.3987 31.4118 17.9091 31.4118Z" stroke="#000AFF" stroke-width="3" stroke-miterlimit="1.5" stroke-linecap="round" stroke-linejoin="round"/>
<path d="M40.6364 31.4118C43.1468 31.4118 45.1818 29.3847 45.1818 26.884C45.1818 24.3832 43.1468 22.3561 40.6364 22.3561C38.1259 22.3561 36.0909 24.3832 36.0909 26.884C36.0909 29.3847 38.1259 31.4118 40.6364 31.4118Z" stroke="#000AFF" stroke-width="3" stroke-miterlimit="1.5" stroke-linecap="round" stroke-linejoin="round"/>
<path d="M22.5682 26.884H33.8182V3.33902C33.8182 2.58881 33.2077 1.98065 32.4545 1.98065H2" stroke="#000AFF" stroke-width="3" stroke-linecap="round"/>
<path d="M12.5682 26.884H7.90908C7.15596 26.884 6.54544 26.2759 6.54544 25.5256V14.4323" stroke="#000AFF" stroke-width="3" stroke-linecap="round"/>
<path d="M4.27272 8.77246H13.3636" stroke="#000AFF" stroke-width="3" stroke-linecap="round" stroke-linejoin="round"/>
<path d="M33.8182 8.77246H46.5684C47.1073 8.77246 47.5957 9.0886 47.8145 9.57915L51.8825 18.6967C51.96 18.8705 52 19.0584 52 19.2484V25.5256C52 26.2759 51.3895 26.884 50.6364 26.884H46.3182" stroke="#000AFF" stroke-width="3" stroke-linecap="round"/>
<path d="M33.8182 26.884H36.0909" stroke="#000AFF" stroke-width="3" stroke-linecap="round"/>
</svg>
